# xmcd CD database file
#
# Track frame offsets:
#	150
#	16679
#	32944
#	49292
#	69811
#	87513
#	111293
#	132954
#	152317
#	169381
#	188550
#	205094
#	237366
#	261279
#	286949
#
# Disc length: 4241 seconds
#
# Revision: 1
# Processed by: cddbd v1.5.2PL0 Copyright (c) Steve Scherf et al.
# Submitted via: CDex 1.51
#
DISCID=c9108f0f
DTITLE=Keith Urban - Get Closer
DYEAR=2010
DGENRE=Country
TTITLE0=Put You In A Song
TTITLE1=You Gonna Fly
TTITLE2=All For You
TTITLE3=Long Hot Summer
TTITLE4=Without You
TTITLE5=Georgia Woods
TTITLE6=Right On Back To You
TTITLE7=Shut Out The Lights
TTITLE8=Big Promises
TTITLE9=The Luxury of Knowing
TTITLE10=Winning
TTITLE11=Once In A Lifetime (Live)
TTITLE12=You Look Good In My Shirt (Live)
TTITLE13=Better Life (Live)
TTITLE14=Everybody (Live)
EXTD=YEAR: 2010
EXTT0=
EXTT1=
EXTT2=
EXTT3=
EXTT4=
EXTT5=
EXTT6=
EXTT7=
EXTT8=
EXTT9=
EXTT10=
EXTT11=
EXTT12=
EXTT13=
EXTT14=
PLAYORDER=
